<?xml version="1.0" encoding="UTF-8"?>
<svg width="16" height="16" viewBox="0 0 16 16" fill="none" xmlns="http://www.w3.org/2000/svg">
  <path d="M10 1H3C2.44772 1 2 1.44772 2 2V14C2 14.5523 2.44772 15 3 15H13C13.5523 15 14 14.5523 14 14V5L10 1Z" fill="#151e33" stroke="#20e6d6" stroke-width="1"/>
  <path d="M10 1V4C10 4.55228 10.4477 5 11 5H14" stroke="#20e6d6" stroke-width="1"/>
  <path d="M8 6C8 6 6 6 6 7V8C6 9 8 9 8 9C8 9 10 9 10 10V11C10 12 8 12 8 12" stroke="#20e6d6" stroke-width="1" stroke-linecap="round" stroke-linejoin="round"/>
  <path d="M7 6V7" stroke="#20e6d6" stroke-width="1" stroke-linecap="round"/>
  <path d="M9 11V12" stroke="#20e6d6" stroke-width="1" stroke-linecap="round"/>
</svg>
